<?xml version="1.0" encoding="utf-8"?>
<!-- Svg Vector Icons : http://www.onlinewebfonts.com/icon -->
<!DOCTYPE svg PUBLIC "-//W3C//DTD SVG 1.1//EN" "http://www.w3.org/Graphics/SVG/1.1/DTD/svg11.dtd">
<svg version="1.1" xmlns="http://www.w3.org/2000/svg" xmlns:xlink="http://www.w3.org/1999/xlink" x="0px" y="0px" viewBox="0 0 256 256" enable-background="new 0 0 256 256" xml:space="preserve">
<metadata> Svg Vector Icons : http://www.onlinewebfonts.com/icon </metadata>
<g><g><path fill="#000000" d="M190.5,246c-2.7,0-5.4-0.7-7.9-2l-53.1-29.4c-1-0.5-2.1-0.5-3.1,0l-53.1,29.4c-6.7,3.7-15.4,2-20.4-3.7c-3.1-3.6-4.4-8.4-3.6-13.2l10.4-63.8c0.2-1-0.2-2-0.9-2.8l-44.3-45.5c-4.3-4.4-5.7-10.8-3.8-16.6c2-5.8,6.9-10,13-11l60.3-9.2c1.1-0.2,2-0.8,2.4-1.8l26.6-57c2.7-5.8,8.4-9.4,14.8-9.4c6.4,0,12.1,3.6,14.8,9.4l26.7,56.9c0.5,1,1.3,1.7,2.4,1.8l60.3,9.2c6.1,0.9,11,5.1,13,10.9c1.9,5.9,0.5,12.2-3.8,16.6l-44.3,45.5c-0.7,0.7-1,1.8-0.9,2.8l10.4,63.8c0.8,4.7-0.6,9.6-3.7,13.2C199.8,243.9,195.3,246,190.5,246z M128,201c2.8,0,5.5,0.7,7.9,2l53.1,29.4c1.4,0.8,3,0.4,4-0.8c0.6-0.7,0.8-1.6,0.7-2.6l-10.4-63.8c-0.8-5.1,0.8-10.3,4.4-14l44.3-45.5c1.2-1.3,0.9-2.7,0.7-3.3c-0.2-0.6-0.8-1.9-2.6-2.2l-60.3-9.2c-5.4-0.8-10-4.3-12.3-9.2l-26.6-56.9c-0.8-1.7-2.3-1.8-2.9-1.8c-0.6,0-2.1,0.2-2.9,1.9L98.5,81.9c-2.3,4.9-6.9,8.4-12.3,9.2l-60.3,9.2c-1.7,0.3-2.4,1.6-2.6,2.2c-0.2,0.6-0.5,2,0.7,3.3l44.3,45.5c3.6,3.7,5.3,8.9,4.4,14l-10.4,63.8c-0.2,1,0.1,1.9,0.7,2.6c1,1.2,2.6,1.5,4,0.8l53.1-29.4C122.5,201.7,125.3,201,128,201z"/></g></g>
</svg>